<svg version="1.1" xmlns="http://www.w3.org/2000/svg" xmlns:xlink="http://www.w3.org/1999/xlink" width="1076" height="422"><defs/><g><g transform="translate(-54,-189) scale(1,1)"><path fill="#C0C0C0" stroke="none" d="M 71 224.5 C 71 219.2532944 75.2532944 215 80.5 215 C 85.7467056 215 90 219.2532944 90 224.5 C 90 229.7467056 85.7467056 234 80.5 234 C 75.2532944 234 71 229.7467056 71 224.5 Z" opacity="0.2"/></g><g transform="translate(-54,-189) scale(1,1)"><path fill="#000000" stroke="none" d="M 64 217.5 C 64 212.2532944 68.2532944 208 73.5 208 C 78.7467056 208 83 212.2532944 83 217.5 C 83 222.7467056 78.7467056 227 73.5 227 C 68.2532944 227 64 222.7467056 64 217.5 Z"/></g><g transform="translate(-54,-189) scale(1,1)"><path fill="#C0C0C0" stroke="none" d="M 153 207 L 245 207 Q 255 207 255 217 L 255 237 Q 255 247 245 247 L 153 247 Q 143 247 143 237 L 143 217 Q 143 207 153 207 Z" opacity="0.2"/></g><g transform="translate(-54,-189) scale(1,1)"><path fill="#ffffff" stroke="none" d="M 146 200 L 238 200 Q 248 200 248 210 L 248 230 Q 248 240 238 240 L 146 240 Q 136 240 136 230 L 136 210 Q 136 200 146 200 Z"/></g><g transform="translate(-54,-189) scale(1,1)"><path fill="none" stroke="#000000" d="M 146 200 L 238 200 Q 248 200 248 210 L 248 230 Q 248 240 238 240 L 146 240 Q 136 240 136 230 L 136 210 Q 136 200 146 200 Z" stroke-miterlimit="10"/></g><g transform="translate(-54,-189) scale(1,1)"><g><path fill="none" stroke="none"/><text fill="#000000" stroke="none" font-family="Arial" font-size="13px" font-style="normal" font-weight="bold" text-decoration="none" x="147.5537109375" y="219.5">reçoit un appel </text></g></g><g transform="translate(-54,-189) scale(1,1)"><path fill="none" stroke="#000000" d="M 84 217 L 135 219" stroke-miterlimit="10"/></g><g transform="translate(-54,-189) scale(1,1)"><path fill="none" stroke="#000000" d="M 124.68017823858217 222.8080544655463 L 135 219 L 125.01008291614946 214.39548518758045" stroke-miterlimit="10"/></g><g transform="translate(-54,-189) scale(1,1)"><path fill="#C0C0C0" stroke="none" d="M 305 207 L 569.904296875 207 Q 579.904296875 207 579.904296875 217 L 579.904296875 237 Q 579.904296875 247 569.904296875 247 L 305 247 Q 295 247 295 237 L 295 217 Q 295 207 305 207 Z" opacity="0.2"/></g><g transform="translate(-54,-189) scale(1,1)"><path fill="#ffffff" stroke="none" d="M 298 200 L 562.904296875 200 Q 572.904296875 200 572.904296875 210 L 572.904296875 230 Q 572.904296875 240 562.904296875 240 L 298 240 Q 288 240 288 230 L 288 210 Q 288 200 298 200 Z"/></g><g transform="translate(-54,-189) scale(1,1)"><path fill="none" stroke="#000000" d="M 298 200 L 562.904296875 200 Q 572.904296875 200 572.904296875 210 L 572.904296875 230 Q 572.904296875 240 562.904296875 240 L 298 240 Q 288 240 288 230 L 288 210 Q 288 200 298 200 Z" stroke-miterlimit="10"/></g><g transform="translate(-54,-189) scale(1,1)"><g><path fill="none" stroke="none"/><text fill="#000000" stroke="none" font-family="Arial" font-size="13px" font-style="normal" font-weight="bold" text-decoration="none" x="321.38671875" y="219.5">Test si c'est le numéro de l'interphone</text></g></g><g transform="translate(-54,-189) scale(1,1)"><path fill="none" stroke="#000000" d="M 249 220 L 287 220" stroke-miterlimit="10"/></g><g transform="translate(-54,-189) scale(1,1)"><path fill="none" stroke="#000000" d="M 276.83732514237585 224.209517756016 L 287 220 L 276.83732514237585 215.790482243984" stroke-miterlimit="10"/></g><g transform="translate(-54,-189) scale(1,1)"><path fill="#C0C0C0" stroke="none" d="M 415 595.5 C 415 588.59644 420.59644 583 427.5 583 C 434.40356 583 440 588.59644 440 595.5 C 440 602.40356 434.40356 608 427.5 608 C 420.59644 608 415 602.40356 415 595.5 Z" opacity="0.2"/></g><g transform="translate(-54,-189) scale(1,1)"><path fill="none" stroke="#000000" d="M 408 588.5 C 408 581.59644 413.59644 576 420.5 576 C 427.40356 576 433 581.59644 433 588.5 C 433 595.40356 427.40356 601 420.5 601 C 413.59644 601 408 595.40356 408 588.5 Z" stroke-miterlimit="10"/></g><g transform="translate(-54,-189) scale(1,1)"><path fill="#000000" stroke="none" d="M 413 588.5 C 413 584.357864 416.357864 581 420.5 581 C 424.642136 581 428 584.357864 428 588.5 C 428 592.642136 424.642136 596 420.5 596 C 416.357864 596 413 592.642136 413 588.5 Z"/></g><g transform="translate(-54,-189) scale(1,1)"><path fill="none" stroke="#000000" d="M 429 241 L 420 575" stroke-miterlimit="10"/></g><g transform="translate(-54,-189) scale(1,1)"><path fill="none" stroke="#000000" d="M 416.0657548302953 564.7276236953344 L 420 575 L 424.48173550558045 564.9544016177223" stroke-miterlimit="10"/></g><g transform="translate(-54,-189) scale(1,1)"><g><path fill="none" stroke="none"/><text fill="#000000" stroke="none" font-family="Arial" font-size="13px" font-style="normal" font-weight="normal" text-decoration="none" x="424.5" y="414.5">false</text></g></g><g transform="translate(-54,-189) scale(1,1)"><path fill="#C0C0C0" stroke="none" d="M 665 207 L 1117 207 Q 1127 207 1127 217 L 1127 237 Q 1127 247 1117 247 L 665 247 Q 655 247 655 237 L 655 217 Q 655 207 665 207 Z" opacity="0.2"/></g><g transform="translate(-54,-189) scale(1,1)"><path fill="#ffffff" stroke="none" d="M 658 200 L 1110 200 Q 1120 200 1120 210 L 1120 230 Q 1120 240 1110 240 L 658 240 Q 648 240 648 230 L 648 210 Q 648 200 658 200 Z"/></g><g transform="translate(-54,-189) scale(1,1)"><path fill="none" stroke="#000000" d="M 658 200 L 1110 200 Q 1120 200 1120 210 L 1120 230 Q 1120 240 1110 240 L 658 240 Q 648 240 648 230 L 648 210 Q 648 200 658 200 Z" stroke-miterlimit="10"/></g><g transform="translate(-54,-189) scale(1,1)"><g><path fill="none" stroke="none"/><text fill="#000000" stroke="none" font-family="Arial" font-size="13px" font-style="normal" font-weight="bold" text-decoration="none" x="680.2275390625" y="219.5">Recupère le numero à composer pour ouvrir la porte dans sharedPrefs</text></g></g><g transform="translate(-54,-189) scale(1,1)"><path fill="none" stroke="#000000" d="M 574 220 L 647 220" stroke-miterlimit="10"/></g><g transform="translate(-54,-189) scale(1,1)"><path fill="none" stroke="#000000" d="M 636.8373251423759 224.209517756016 L 647 220 L 636.8373251423758 215.790482243984" stroke-miterlimit="10"/></g><g transform="translate(-54,-189) scale(1,1)"><g><path fill="none" stroke="none"/><text fill="#000000" stroke="none" font-family="Arial" font-size="13px" font-style="normal" font-weight="normal" text-decoration="none" x="598.5" y="211.5">true</text></g></g><g transform="translate(-54,-189) scale(1,1)"><path fill="#C0C0C0" stroke="none" d="M 769 367 L 1012.46484375 367 Q 1022.46484375 367 1022.46484375 377 L 1022.46484375 397 Q 1022.46484375 407 1012.46484375 407 L 769 407 Q 759 407 759 397 L 759 377 Q 759 367 769 367 Z" opacity="0.2"/></g><g transform="translate(-54,-189) scale(1,1)"><path fill="#ffffff" stroke="none" d="M 762 360 L 1005.46484375 360 Q 1015.46484375 360 1015.46484375 370 L 1015.46484375 390 Q 1015.46484375 400 1005.46484375 400 L 762 400 Q 752 400 752 390 L 752 370 Q 752 360 762 360 Z"/></g><g transform="translate(-54,-189) scale(1,1)"><path fill="none" stroke="#000000" d="M 762 360 L 1005.46484375 360 Q 1015.46484375 360 1015.46484375 370 L 1015.46484375 390 Q 1015.46484375 400 1005.46484375 400 L 762 400 Q 752 400 752 390 L 752 370 Q 752 360 762 360 Z" stroke-miterlimit="10"/></g><g transform="translate(-54,-189) scale(1,1)"><g><path fill="none" stroke="none"/><text fill="#000000" stroke="none" font-family="Arial" font-size="13px" font-style="normal" font-weight="bold" text-decoration="none" x="765.4248046875" y="379.5">Compose le numéro d'ouverture de porte</text></g></g><g transform="translate(-54,-189) scale(1,1)"><path fill="none" stroke="#000000" d="M 884 241 L 883 359" stroke-miterlimit="10"/></g><g transform="translate(-54,-189) scale(1,1)"><path fill="none" stroke="#000000" d="M 878.8767546670558 348.8020174581266 L 883 359 L 887.2954878743601 348.8733626547987" stroke-miterlimit="10"/></g><g transform="translate(-54,-189) scale(1,1)"><path fill="#C0C0C0" stroke="none" d="M 857 567 L 912.47900390625 567 Q 922.47900390625 567 922.47900390625 577 L 922.47900390625 597 Q 922.47900390625 607 912.47900390625 607 L 857 607 Q 847 607 847 597 L 847 577 Q 847 567 857 567 Z" opacity="0.2"/></g><g transform="translate(-54,-189) scale(1,1)"><path fill="#ffffff" stroke="none" d="M 850 560 L 905.47900390625 560 Q 915.47900390625 560 915.47900390625 570 L 915.47900390625 590 Q 915.47900390625 600 905.47900390625 600 L 850 600 Q 840 600 840 590 L 840 570 Q 840 560 850 560 Z"/></g><g transform="translate(-54,-189) scale(1,1)"><path fill="none" stroke="#000000" d="M 850 560 L 905.47900390625 560 Q 915.47900390625 560 915.47900390625 570 L 915.47900390625 590 Q 915.47900390625 600 905.47900390625 600 L 850 600 Q 840 600 840 590 L 840 570 Q 840 560 850 560 Z" stroke-miterlimit="10"/></g><g transform="translate(-54,-189) scale(1,1)"><g><path fill="none" stroke="none"/><text fill="#000000" stroke="none" font-family="Arial" font-size="13px" font-style="normal" font-weight="bold" text-decoration="none" x="846.6708984375" y="579.5">Raccroche</text></g></g><g transform="translate(-54,-189) scale(1,1)"><path fill="none" stroke="#000000" d="M 882 401 L 878 559" stroke-miterlimit="10"/></g><g transform="translate(-54,-189) scale(1,1)"><path fill="none" stroke="#000000" d="M 874.0490310822491 548.7340443888079 L 878 559 L 882.465369914035 548.9471162579671" stroke-miterlimit="10"/></g><g transform="translate(-54,-189) scale(1,1)"><path fill="none" stroke="#000000" d="M 839 581 L 434 588" stroke-miterlimit="10"/></g><g transform="translate(-54,-189) scale(1,1)"><path fill="none" stroke="#000000" d="M 444.0884109926579 583.6154859284956 L 434 588 L 444.23390345647385 592.0332641921367" stroke-miterlimit="10"/></g></g></svg>